<svg xmlns="http://www.w3.org/2000/svg" viewBox="0 0 171.61 127.62"><defs><style>.cls-1{fill:#231f20;fill-rule:evenodd;}</style></defs><g id="Слой_2" data-name="Слой 2"><g id="Layer_1" data-name="Layer 1"><path class="cls-1" d="M0,30.67v85.18a11.7,11.7,0,0,0,11.36,11.77H39V60.69Z"/><path class="cls-1" d="M132.66,60.69v66.93h27.58a11.7,11.7,0,0,0,11.36-11.77V30.67Z"/><path class="cls-1" d="M171.6,30.67V21.74c0-6.89.4-11.35-3.65-15.41A19.33,19.33,0,0,0,142,3.9c-2.84,2-6.09,4.46-9.33,6.89v49.9Z"/><path class="cls-1" d="M0,21.74v8.93L39,60.69V10.79c-3.24-2.43-6.49-4.87-9.73-6.89A18.86,18.86,0,0,0,3.66,6.33C-.39,10.39,0,14.85,0,21.74Z"/><path class="cls-1" d="M39,60.69,85.6,96l47.06-35.29V10.79c-15.82,11.77-31.24,23.93-47.06,35.7C70.19,34.72,54.37,22.56,39,10.79Z"/></g></g></svg>