<svg xmlns="http://www.w3.org/2000/svg" viewBox="0 0 118.09 140.38"><defs><style>.cls-1{fill:#231f20;fill-rule:evenodd;}</style></defs><g id="Слой_2" data-name="Слой 2"><g id="Layer_1" data-name="Layer 1"><path class="cls-1" d="M27.44.44C36.5-1.46,40.63,3,41.57,10.4L44.17,28s2.56,9.83-12.73,14.46c-2.49.57-2.49.57-2.64,3.77.76,8,5.9,32.87,37.42,60.22,3,2.84,3.76,3,8,1.69l11.55-5.07c7.81-2.92,11.9-3.67,16.57,1.58,3.58,3.64,7,7.88,10.58,11.52,3.41,4.24,9.5,9.91.27,15l-8.34,4.7c-12.06,6.87-20.09,5.18-31.52-.74C29.92,111.48,3.69,74,0,30.74-.61,14.33,10.18,3.85,27.44.44Z"/></g></g></svg>