<svg xmlns="http://www.w3.org/2000/svg" viewBox="0 0 373.33 373.33"><defs><style>.cls-1{fill:#231f20;}.cls-2{fill:#fff;fill-rule:evenodd;}</style></defs><g id="Слой_2" data-name="Слой 2"><g id="Layer_1" data-name="Layer 1"><circle class="cls-1" cx="186.67" cy="186.67" r="186.67"/><path class="cls-2" d="M90.29,183.63c43.46-18.22,96-44.15,141.58-61.67,42.05-15.42,41.35-11.22,35,30.84-4.9,33.64-10.51,67.28-16.12,100.92-2.1,16.12-10.51,24.53-28,14.72l-54.67-38.55c-7.71-6.31-5.61-11.21.7-17.52l50.47-47.66c13.31-13.32,7-18.22-8.42-7.71l-69.38,47c-9.81,7-20.33,7-31.54,3.5l-23.83-8.41c-15.42-5.6-3.51-11.91,4.2-15.42Z"/></g></g></svg>